Coordinates
version=1
nRows=8
nColumns=33
inDegrees=yes

Units are S.I. units (second, meters, Newtons, ...)
Angles are in degrees.

endheader
time	ground_thorax_rot_x	ground_thorax_rot_y	ground_thorax_rot_z	ground_thorax_tx	ground_thorax_ty	ground_thorax_tz	clav_prot_r	clav_elev_r	scapula_abduction_r	scapula_elevation_r	scapula_upward_rot_r	scapula_winging_r	shoulder_elv_r	plane_of_elev_r	axial_rot_r	elbow_flexion_r	pro_sup_r	wrist_flex_r	wrist_dev_r	clav_prot_l	clav_elev_l	scapula_abduction_l	scapula_elevation_l	scapula_upward_rot_l	scapula_winging_l	shoulder_elv_l	plane_of_elev_l	axial_rot_l	elbow_flexion_l	pro_sup_l	wrist_flex_l	wrist_dev_l
      5.06000000	    -41.50608250	     -3.68700449	      0.02835588	   -127.79180605	    896.04063554	     -6.64059931	      7.57753369	    -45.00000000	     44.16218913	    -45.00000000	    -12.77519406	   1700.93666463	  -1907.54777637	    149.26151609	    -95.86195626	   1099.62648437	     84.28619589	     15.45269138	      2.86880284	     15.44800950	     41.84929057	    -44.02534143	    -45.00000000	    -33.67728179	   -272.91719029	  -2807.59207425	     22.57654898	    -33.42437290	   -349.53311749	     19.43751824	      9.74956339	    -22.40115183
      5.07000000	    -41.68486995	     -3.75997174	      0.08298469	   -123.84432221	    894.50097318	     -6.22332889	      7.82668836	    -45.00000000	     44.04748811	    -45.00000000	    -13.93837997	   1701.54085852	  -1907.53168587	    148.94702348	    -98.51273151	   1099.66641195	     84.62031071	     15.60642158	      2.87829726	     15.78087727	     41.91591400	    -44.30560295	    -45.00000000	    -32.54118065	   -272.84731450	  -2807.92677604	     22.28220407	    -34.64725348	   -349.67126847	     17.13089061	      9.76843589	    -22.06091481
      5.08000000	    -41.82200014	     -3.61584770	     -0.16946481	   -119.79769364	    892.71195403	     -5.79316866	      7.69859127	    -45.00000000	     44.29932239	    -45.00000000	    -13.03398629	   1701.77372170	  -1907.73767694	    148.95927686	    -99.26705638	   1099.73942339	     84.89154897	     15.67597775	      2.90769992	     15.99714551	     42.18600282	    -44.58644233	    -45.00000000	    -31.76085524	   -272.95175535	  -2808.20350102	     22.20209486	    -34.65809240	   -349.83109211	     14.49285717	     10.19372954	    -21.87182892
      5.09000000	    -41.94715066	     -3.75228110	     -0.24195539	   -115.66064561	    890.69681831	     -5.36035129	      7.68693767	    -45.00000000	     44.61634785	    -45.00000000	    -12.82816004	   1702.06267543	  -1907.96545852	    148.83038508	    -99.90672497	   1099.76805418	     85.07856295	     15.38568293	      2.92009958	     15.36276086	     42.29075251	    -44.70056501	    -45.00000000	    -31.08234408	   -272.74140629	  -2808.77876104	     22.50123319	    -34.78295312	   -350.04250207	     12.49351327	     10.65680874	    -21.69238797
      5.10000000	    -42.02469407	     -3.33289456	     -0.68358821	   -111.43488707	    888.46657566	     -4.93316333	      7.41543676	    -45.00000000	     45.00000000	    -45.00000000	    -10.93005780	   1702.12672005	  -1908.26902691	    149.03844587	   -100.25665120	   1099.83797424	     85.33116409	     15.67210565	      2.98004379	     16.07792086	     42.70257486	    -45.00000000	    -45.00000000	    -30.17437099	   -273.21136687	  -2808.87632366	     22.26247574	    -34.49949559	   -350.15944148	      9.97941810	     11.02343789	    -21.45250039
      5.11000000	    -42.12895581	     -3.38550579	     -0.80085301	   -107.13052002	    886.04067798	     -4.51844358	      7.22673554	    -45.00000000	     45.00000000	    -45.00000000	    -10.31690518	   1702.58564336	  -1908.53204924	    149.08098822	   -100.62113931	   1099.88962997	     85.46884901	     15.64873286	      3.02097547	     15.92695125	     42.86567256	    -45.00000000	    -45.00000000	    -29.46196135	   -273.33811363	  -2809.23657991	     22.42339296	    -34.27630577	   -350.37911366	      7.95432898	     11.40618111	    -21.20343587
      5.12000000	    -42.18265130	     -3.62221684	     -0.69563282	   -102.75422120	    883.43099465	     -4.12215268	      7.46595284	    -45.00000000	     45.00000000	    -45.00000000	    -10.59882274	   1702.84987073	  -1908.86693597	    148.72162435	   -101.26960766	   1099.82375046	     85.49087108	     15.18310283	      3.04349664	     14.85116607	     42.82032089	    -45.00000000	    -45.00000000	    -28.95415673	   -273.37448032	  -2809.66119716	     22.64264514	    -34.28083722	   -350.38557478	      6.63788396	     11.97420270	    -21.01756980
      5.13000000	    -42.26684449	     -3.53346495	     -0.90144347	    -98.31362296	    880.64636148	     -3.74962838	      7.08880646	    -45.00000000	     45.00000000	    -45.00000000	     -9.83334802	   1703.47549912	  -1909.07052888	    148.94302289	   -102.00659496	   1099.92485946	     85.48848605	     15.52907421	      3.11094486	     15.27075708	     43.17761376	    -45.00000000	    -45.00000000	    -28.00290519	   -273.71793932	  -2809.98939886	     22.63541803	    -33.91035929	   -350.60643489	      5.38062268	     12.11815087	    -20.77939269
